<svg width="150" height="31" viewBox="0 0 150 31" fill="none" xmlns="http://www.w3.org/2000/svg">
<path d="M8.27107 24.5969C6.79071 24.5969 5.5267 24.4374 4.47906 24.1186C3.45419 23.777 2.61152 23.367 1.95105 22.8888C1.31335 22.4105 0.835079 21.9208 0.51623 21.4198C0.197382 20.896 0.0265707 20.4518 0.00379581 20.0874C-0.0189791 19.8369 0.060733 19.6319 0.242932 19.4725C0.425131 19.2903 0.618717 19.1992 0.823691 19.1992H4.71819C4.78652 19.1992 4.84346 19.2106 4.88901 19.2334C4.93456 19.2562 5.00288 19.3017 5.09398 19.37C5.39005 19.5295 5.68613 19.7344 5.9822 19.985C6.27827 20.2127 6.6199 20.4177 7.00707 20.5999C7.39424 20.7821 7.86113 20.8732 8.40772 20.8732C9.04542 20.8732 9.58063 20.7479 10.0134 20.4974C10.4461 20.2469 10.6624 19.8711 10.6624 19.37C10.6624 19.0056 10.5599 18.7096 10.355 18.4818C10.15 18.2313 9.72867 17.9921 9.09097 17.7644C8.47605 17.5366 7.54228 17.3089 6.28966 17.0812C5.10537 16.8079 4.06911 16.4548 3.18089 16.0221C2.29267 15.5666 1.60942 14.9859 1.13115 14.2798C0.65288 13.551 0.413743 12.6742 0.413743 11.6493C0.413743 10.7384 0.709817 9.86152 1.30196 9.01885C1.89411 8.17618 2.75956 7.49293 3.8983 6.96911C5.03704 6.42251 6.4377 6.14921 8.10026 6.14921C9.4212 6.14921 10.5599 6.30864 11.5165 6.62749C12.4958 6.92356 13.3157 7.31073 13.9762 7.78901C14.6594 8.26728 15.1719 8.75694 15.5135 9.25798C15.8551 9.75903 16.0373 10.2145 16.0601 10.6245C16.0829 10.8522 16.0145 11.0572 15.8551 11.2394C15.6957 11.3988 15.5135 11.4785 15.3085 11.4785H11.7556C11.6645 11.4785 11.5734 11.4671 11.4823 11.4444C11.3912 11.3988 11.3115 11.3533 11.2432 11.3077C10.9699 11.1711 10.6966 10.9889 10.4233 10.7611C10.15 10.5334 9.83115 10.3284 9.46675 10.1462C9.10236 9.96401 8.64686 9.87291 8.10026 9.87291C7.48534 9.87291 7.00707 10.0096 6.66545 10.2829C6.32382 10.5562 6.15301 10.9092 6.15301 11.3419C6.15301 11.638 6.24411 11.9113 6.42631 12.1618C6.63128 12.4123 7.02984 12.6401 7.62199 12.845C8.23691 13.05 9.18207 13.2777 10.4575 13.5283C12.0289 13.7788 13.2815 14.1887 14.2153 14.7581C15.1491 15.3047 15.8096 15.9538 16.1967 16.7054C16.5839 17.4342 16.7775 18.2085 16.7775 19.0284C16.7775 20.1216 16.4473 21.0895 15.7868 21.9322C15.1491 22.7749 14.1925 23.4353 12.9171 23.9136C11.6418 24.3691 10.0931 24.5969 8.27107 24.5969Z" fill="#6B7280"/>
<path d="M28.2469 24.5969C26.3339 24.5969 24.7168 24.2894 23.3959 23.6745C22.0977 23.0596 21.0956 22.1827 20.3896 21.044C19.7064 19.8825 19.3192 18.5046 19.2281 16.9103C19.2053 16.4548 19.1939 15.9424 19.1939 15.373C19.1939 14.7809 19.2053 14.2685 19.2281 13.8357C19.3192 12.2187 19.7291 10.8408 20.4579 9.7021C21.1867 8.56335 22.2002 7.68652 23.4984 7.0716C24.8193 6.45668 26.4022 6.14921 28.2469 6.14921C30.1145 6.14921 31.6973 6.45668 32.9955 7.0716C34.3164 7.68652 35.3413 8.56335 36.0701 9.7021C36.7989 10.8408 37.2089 12.2187 37.3 13.8357C37.3227 14.2685 37.3341 14.7809 37.3341 15.373C37.3341 15.9424 37.3227 16.4548 37.3 16.9103C37.2089 18.5046 36.8103 19.8825 36.1043 21.044C35.421 22.1827 34.4189 23.0596 33.098 23.6745C31.7998 24.2894 30.1828 24.5969 28.2469 24.5969ZM28.2469 20.4291C29.2718 20.4291 30.012 20.1216 30.4675 19.5067C30.9458 18.8918 31.2191 17.9694 31.2874 16.7395C31.3102 16.3979 31.3216 15.9424 31.3216 15.373C31.3216 14.8037 31.3102 14.3482 31.2874 14.0065C31.2191 12.7995 30.9458 11.8885 30.4675 11.2736C30.012 10.6359 29.2718 10.317 28.2469 10.317C27.2449 10.317 26.5047 10.6359 26.0264 11.2736C25.5481 11.8885 25.2862 12.7995 25.2407 14.0065C25.2179 14.3482 25.2065 14.8037 25.2065 15.373C25.2065 15.9424 25.2179 16.3979 25.2407 16.7395C25.2862 17.9694 25.5481 18.8918 26.0264 19.5067C26.5047 20.1216 27.2449 20.4291 28.2469 20.4291Z" fill="#6B7280"/>
<path d="M41.5481 24.2552C41.2976 24.2552 41.0926 24.1755 40.9332 24.0161C40.7737 23.8567 40.694 23.6517 40.694 23.4012V7.3449C40.694 7.09437 40.7737 6.8894 40.9332 6.72997C41.0926 6.57055 41.2976 6.49084 41.5481 6.49084H45.4768C45.7273 6.49084 45.9323 6.57055 46.0917 6.72997C46.2511 6.8894 46.3308 7.09437 46.3308 7.3449V8.64306C46.923 7.93704 47.6973 7.3449 48.6539 6.86663C49.6104 6.38835 50.7378 6.14921 52.0359 6.14921C53.3569 6.14921 54.5184 6.44529 55.5205 7.03744C56.5453 7.62958 57.3425 8.50642 57.9118 9.66793C58.504 10.8067 58.8001 12.2073 58.8001 13.8699V23.4012C58.8001 23.6517 58.709 23.8567 58.5268 24.0161C58.3673 24.1755 58.1738 24.2552 57.946 24.2552H53.6415C53.4138 24.2552 53.2088 24.1755 53.0266 24.0161C52.8672 23.8567 52.7875 23.6517 52.7875 23.4012V14.0749C52.7875 13.0044 52.5256 12.1846 52.0018 11.6152C51.5007 11.023 50.7491 10.727 49.747 10.727C48.8133 10.727 48.0617 11.023 47.4923 11.6152C46.9457 12.1846 46.6724 13.0044 46.6724 14.0749V23.4012C46.6724 23.6517 46.5813 23.8567 46.3991 24.0161C46.2397 24.1755 46.0461 24.2552 45.8184 24.2552H41.5481Z" fill="#6B7280"/>
<path d="M67.9419 24.5969C66.7121 24.5969 65.6075 24.3691 64.6282 23.9136C63.6717 23.4353 62.9087 22.7977 62.3393 22.0005C61.7699 21.2034 61.4853 20.3038 61.4853 19.3017C61.4853 17.6847 62.1457 16.4093 63.4667 15.4755C64.7876 14.519 66.5413 13.8699 68.7277 13.5283L72.998 12.8792V12.4009C72.998 11.581 72.8272 10.9547 72.4855 10.522C72.1439 10.0893 71.5176 9.87291 70.6066 9.87291C69.9689 9.87291 69.4451 9.99817 69.0351 10.2487C68.648 10.4992 68.3405 10.8408 68.1128 11.2736C67.9078 11.5696 67.6231 11.7177 67.2587 11.7177H63.4325C63.182 11.7177 62.9884 11.6493 62.8518 11.5127C62.7151 11.3533 62.6582 11.1711 62.6809 10.9661C62.6809 10.5562 62.829 10.0893 63.1251 9.56545C63.4439 9.01885 63.9222 8.48364 64.5599 7.95982C65.1976 7.436 66.0175 7.00327 67.0196 6.66165C68.0217 6.32003 69.2287 6.14921 70.6408 6.14921C72.1211 6.14921 73.3851 6.32003 74.4328 6.66165C75.4804 7.00327 76.3231 7.48155 76.9608 8.09647C77.6213 8.71139 78.1109 9.44018 78.4298 10.2829C78.7486 11.1027 78.908 12.0137 78.908 13.0158V23.4012C78.908 23.6517 78.8169 23.8567 78.6347 24.0161C78.4753 24.1755 78.2817 24.2552 78.054 24.2552H74.0911C73.8406 24.2552 73.6357 24.1755 73.4762 24.0161C73.3168 23.8567 73.2371 23.6517 73.2371 23.4012V22.2055C72.941 22.6382 72.5425 23.0368 72.0414 23.4012C71.5404 23.7656 70.9482 24.0503 70.265 24.2552C69.6045 24.483 68.8302 24.5969 67.9419 24.5969ZM69.5476 20.7024C70.208 20.7024 70.8002 20.5657 71.324 20.2924C71.8706 19.9963 72.2919 19.5522 72.588 18.9601C72.9069 18.3452 73.0663 17.5822 73.0663 16.6712V16.1929L70.1625 16.7054C69.0921 16.8876 68.3063 17.1723 67.8053 17.5594C67.327 17.9238 67.0879 18.3565 67.0879 18.8576C67.0879 19.2448 67.2018 19.575 67.4295 19.8483C67.6573 20.1216 67.9533 20.338 68.3177 20.4974C68.6821 20.634 69.0921 20.7024 69.5476 20.7024Z" fill="#6B7280"/>
<path d="M91.7168 24.2552C90.2592 24.2552 88.9952 24.0275 87.9248 23.572C86.8771 23.0937 86.0686 22.3649 85.4992 21.3856C84.9299 20.3835 84.6452 19.0967 84.6452 17.5253V10.9661V0.854057C84.6452 0.603534 84.7249 0.398561 84.8843 0.239137C85.0665 0.0797126 85.2715 0 85.4992 0H89.4621C89.7126 0 89.9176 0.0797126 90.077 0.239137C90.2364 0.398561 90.3161 0.603534 90.3161 0.854057V10.9661V17.047C90.3161 17.8213 90.4641 18.4363 90.7602 18.8918C91.0563 19.3473 91.5573 19.575 92.2634 19.575H94.8939C95.1444 19.575 95.3494 19.6547 95.5088 19.8141C95.6682 19.9736 95.7479 20.1785 95.7479 20.4291V23.4012C95.7479 23.6517 95.6682 23.8567 95.5088 24.0161C95.3494 24.1755 95.1444 24.2552 94.8939 24.2552H91.7168Z" fill="#6B7280"/>
<path d="M99.4305 24.2552C99.18 24.2552 98.975 24.1755 98.8156 24.0161C98.6562 23.8567 98.5764 23.6517 98.5764 23.4012L98.5423 12.8792C98.5423 12.6287 98.622 12.4237 98.7814 12.2643C98.9408 12.1048 99.1458 12.0251 99.3963 12.0251H103.427C103.655 12.0251 103.849 12.1048 104.008 12.2643C104.19 12.4237 104.282 12.6287 104.282 12.8792L104.316 23.4012C104.316 23.6517 104.225 23.8567 104.042 24.0161C103.883 24.1755 103.689 24.2552 103.462 24.2552H99.4305Z" fill="#A5B4FC"/>
<rect x="80.1046" y="4.71204" width="24.3456" height="4.71204" rx="1.57068" fill="#A5B4FC"/>
<path d="M108.785 28.8324C108.613 28.8324 108.471 28.7696 108.361 28.6439C108.251 28.534 108.196 28.4005 108.196 28.2434V12.6937C108.196 12.5209 108.251 12.3795 108.361 12.2696C108.471 12.1597 108.613 12.1047 108.785 12.1047H111.448C111.605 12.1047 111.738 12.1597 111.848 12.2696C111.974 12.3795 112.037 12.5209 112.037 12.6937V13.5419C112.414 13.0706 112.901 12.678 113.497 12.3638C114.094 12.034 114.825 11.8691 115.688 11.8691C116.474 11.8691 117.165 11.9947 117.762 12.246C118.359 12.4816 118.869 12.835 119.293 13.3062C119.733 13.7775 120.071 14.3508 120.306 15.0261C120.542 15.7015 120.675 16.479 120.707 17.3586C120.723 17.6727 120.73 17.9633 120.73 18.2303C120.73 18.4973 120.723 18.7879 120.707 19.1021C120.675 19.9502 120.542 20.712 120.306 21.3874C120.071 22.0628 119.741 22.6361 119.317 23.1073C118.893 23.5785 118.374 23.9476 117.762 24.2146C117.165 24.4659 116.474 24.5916 115.688 24.5916C114.919 24.5916 114.243 24.4581 113.662 24.1911C113.097 23.9083 112.626 23.5157 112.249 23.0131V28.2434C112.249 28.4005 112.194 28.534 112.084 28.6439C111.974 28.7696 111.832 28.8324 111.66 28.8324H108.785ZM114.416 21.4345C114.95 21.4345 115.366 21.3246 115.665 21.1047C115.963 20.8848 116.175 20.5864 116.301 20.2094C116.442 19.8324 116.529 19.4162 116.56 18.9607C116.592 18.4738 116.592 17.9869 116.56 17.5C116.529 17.0445 116.442 16.6282 116.301 16.2513C116.175 15.8743 115.963 15.5759 115.665 15.356C115.366 15.1361 114.95 15.0261 114.416 15.0261C113.914 15.0261 113.505 15.1439 113.191 15.3795C112.877 15.5994 112.649 15.89 112.508 16.2513C112.366 16.6125 112.28 17.0052 112.249 17.4293C112.233 17.7277 112.225 18.0183 112.225 18.301C112.225 18.5837 112.233 18.8822 112.249 19.1963C112.264 19.589 112.351 19.9581 112.508 20.3036C112.665 20.6335 112.901 20.9083 113.215 21.1282C113.529 21.3324 113.929 21.4345 114.416 21.4345ZM128.714 24.5916C126.861 24.5916 125.384 24.089 124.285 23.0837C123.185 22.0785 122.612 20.5864 122.565 18.6073C122.565 18.4973 122.565 18.356 122.565 18.1832C122.565 18.0104 122.565 17.8769 122.565 17.7827C122.612 16.5419 122.887 15.4816 123.389 14.6021C123.908 13.7068 124.614 13.0314 125.51 12.5759C126.421 12.1047 127.481 11.8691 128.69 11.8691C130.073 11.8691 131.211 12.1439 132.107 12.6937C133.018 13.2434 133.701 13.9895 134.156 14.9319C134.612 15.8743 134.84 16.9502 134.84 18.1597V18.7251C134.84 18.8979 134.785 19.0392 134.675 19.1492C134.565 19.2591 134.423 19.3141 134.251 19.3141H126.711C126.711 19.3298 126.711 19.3534 126.711 19.3848C126.711 19.4162 126.711 19.4476 126.711 19.479C126.727 19.9345 126.806 20.3508 126.947 20.7277C127.104 21.1047 127.324 21.4031 127.607 21.623C127.905 21.8429 128.266 21.9528 128.69 21.9528C129.005 21.9528 129.264 21.9057 129.468 21.8115C129.688 21.7015 129.868 21.5837 130.01 21.4581C130.151 21.3167 130.261 21.1989 130.34 21.1047C130.481 20.9319 130.591 20.8298 130.669 20.7984C130.764 20.7513 130.905 20.7277 131.094 20.7277H134.015C134.172 20.7277 134.298 20.7748 134.392 20.8691C134.502 20.9633 134.549 21.089 134.533 21.246C134.518 21.5131 134.384 21.835 134.133 22.212C133.881 22.589 133.512 22.9659 133.025 23.3429C132.554 23.7042 131.957 24.0026 131.235 24.2382C130.512 24.4738 129.672 24.5916 128.714 24.5916ZM126.711 16.9816H130.693V16.9345C130.693 16.4162 130.614 15.9764 130.457 15.6151C130.316 15.2382 130.088 14.9476 129.774 14.7434C129.476 14.5392 129.114 14.4371 128.69 14.4371C128.282 14.4371 127.929 14.5392 127.63 14.7434C127.332 14.9476 127.104 15.2382 126.947 15.6151C126.79 15.9764 126.711 16.4162 126.711 16.9345V16.9816ZM137.637 24.356C137.465 24.356 137.323 24.301 137.213 24.1911C137.103 24.0654 137.048 23.9241 137.048 23.767V8.21724C137.048 8.04447 137.103 7.90311 137.213 7.79316C137.323 7.68321 137.465 7.62824 137.637 7.62824H140.37C140.527 7.62824 140.661 7.68321 140.771 7.79316C140.897 7.90311 140.959 8.04447 140.959 8.21724V16.1099L144.234 12.5052C144.328 12.3953 144.431 12.301 144.541 12.2225C144.65 12.1439 144.808 12.1047 145.012 12.1047H148.169C148.31 12.1047 148.428 12.1597 148.522 12.2696C148.632 12.3638 148.687 12.4816 148.687 12.623C148.687 12.6858 148.671 12.7565 148.64 12.835C148.624 12.9136 148.577 12.9764 148.499 13.0235L144.258 17.5942L149.088 23.4607C149.213 23.5864 149.276 23.7042 149.276 23.8141C149.276 23.9712 149.221 24.1047 149.111 24.2146C149.017 24.3089 148.891 24.356 148.734 24.356H145.506C145.271 24.356 145.098 24.3167 144.988 24.2382C144.878 24.1439 144.776 24.0497 144.682 23.9555L140.959 19.479V23.767C140.959 23.9241 140.897 24.0654 140.771 24.1911C140.661 24.301 140.527 24.356 140.37 24.356H137.637Z" fill="#6B7280"/>
</svg>
