<svg width="771" height="529" viewBox="0 0 771 529" fill="none" xmlns="http://www.w3.org/2000/svg">
<g filter="url(#filter0_b_57_7)">
<path d="M380.404 1.15285C382.013 0.396145 383.756 0.0118632 385.5 0C387.244 0.0118632 388.987 0.396145 390.596 1.15285L764.327 176.862C773.314 181.088 773.198 193.517 764.134 197.584L626.703 259.254C623.285 260.788 616.056 259.002 616.056 259.002C616.056 259.002 470.582 187.459 385.5 187.42C300.418 187.459 154.944 259.002 154.944 259.002C154.944 259.002 147.715 260.788 144.297 259.254L6.86639 197.584C-2.19791 193.517 -2.3139 181.088 6.67301 176.862L380.404 1.15285Z" fill="url(#paint0_linear_57_7)"/>
<path d="M281.801 333.389C313.582 342.97 348.493 353.496 385.5 353.512C422.507 353.496 457.418 342.97 489.199 333.389C533.096 320.154 571.021 308.721 600.247 329.27C603.029 331.226 604.496 334.45 604.496 337.778V404.258C604.496 408.394 602.195 412.21 598.474 414.244L391.274 527.517C389.482 528.497 387.492 528.991 385.5 529C383.508 528.991 381.518 528.497 379.726 527.517L172.526 414.244C168.805 412.21 166.504 408.394 166.504 404.258V337.778C166.504 334.45 167.971 331.226 170.753 329.27C199.979 308.721 237.904 320.154 281.801 333.389Z" fill="url(#paint1_linear_57_7)"/>
<path d="M616.59 258.11C616.508 258.092 616.442 258.076 616.393 258.065L616.386 258.061C616.315 258.027 616.209 257.975 616.07 257.907L615.798 257.775C615.544 257.651 615.221 257.495 614.832 257.307C613.743 256.782 612.136 256.012 610.062 255.033C605.913 253.074 599.892 250.276 592.401 246.92C577.421 240.206 556.56 231.254 533.036 222.301C486.032 204.41 428.241 186.45 385.5 186.431H385.5C342.759 186.45 284.968 204.41 237.964 222.301C214.44 231.254 193.579 240.206 178.599 246.92C171.108 250.276 165.087 253.074 160.938 255.033C158.864 256.012 157.257 256.782 156.168 257.307C155.624 257.57 155.209 257.771 154.93 257.907C154.854 257.944 154.789 257.976 154.733 258.003L154.614 258.061L154.607 258.065C154.558 258.076 154.492 258.092 154.41 258.11C154.213 258.154 153.926 258.216 153.57 258.286C152.857 258.426 151.874 258.596 150.79 258.72C149.703 258.844 148.534 258.918 147.444 258.873C146.34 258.827 145.391 258.66 144.702 258.351L7.27154 196.681C-1.02242 192.96 -1.12594 181.623 7.09406 177.758L380.825 2.04842C382.3 1.35482 383.898 1.00149 385.5 0.989636C387.102 1.00149 388.7 1.35482 390.175 2.04842L763.906 177.758C772.126 181.623 772.022 192.96 763.728 196.681L626.298 258.351C625.609 258.66 624.66 258.827 623.556 258.873C622.466 258.918 621.297 258.844 620.21 258.72C619.126 258.596 618.143 258.426 617.43 258.286C617.074 258.216 616.787 258.154 616.59 258.11ZM385.5 354.501H385.5C422.654 354.485 457.681 343.925 489.427 334.354L489.485 334.336C511.459 327.711 531.818 321.577 550.327 319.645C568.808 317.715 585.327 319.989 599.678 330.079C602.166 331.829 603.507 334.733 603.507 337.778V404.258C603.507 408.021 601.413 411.509 597.999 413.376L390.8 526.648C389.156 527.547 387.33 528.001 385.5 528.01C383.67 528.001 381.844 527.547 380.2 526.648L173.001 413.376C169.587 411.509 167.493 408.021 167.493 404.258V337.778C167.493 334.733 168.834 331.829 171.322 330.079C185.673 319.989 202.192 317.715 220.673 319.645C239.182 321.577 259.541 327.711 281.515 334.336L281.573 334.354C313.319 343.925 348.346 354.485 385.5 354.501Z" stroke="url(#paint2_linear_57_7)" stroke-width="1.97922"/>
</g>
<defs>
<filter id="filter0_b_57_7" x="-158.338" y="-158.338" width="1087.68" height="845.676" filterUnits="userSpaceOnUse" color-interpolation-filters="sRGB">
<feFlood flood-opacity="0" result="BackgroundImageFix"/>
<feGaussianBlur in="BackgroundImageFix" stdDeviation="79.1689"/>
<feComposite in2="SourceAlpha" operator="in" result="effect1_backgroundBlur_57_7"/>
<feBlend mode="normal" in="SourceGraphic" in2="effect1_backgroundBlur_57_7" result="shape"/>
</filter>
<linearGradient id="paint0_linear_57_7" x1="386" y1="-7.42816e-06" x2="203.386" y2="535.19" gradientUnits="userSpaceOnUse">
<stop stop-color="#412376"/>
<stop offset="1" stop-color="#2F2B75"/>
</linearGradient>
<linearGradient id="paint1_linear_57_7" x1="386" y1="-7.42816e-06" x2="203.386" y2="535.19" gradientUnits="userSpaceOnUse">
<stop stop-color="#412376"/>
<stop offset="1" stop-color="#2F2B75"/>
</linearGradient>
<linearGradient id="paint2_linear_57_7" x1="385.5" y1="0" x2="385.5" y2="529" gradientUnits="userSpaceOnUse">
<stop stop-color="#412376"/>
<stop offset="1" stop-color="#2265CA"/>
<stop offset="1" stop-color="#2F2B75"/>
</linearGradient>
</defs>
</svg>
